<?xml version="1.0" standalone="no"?>
<!DOCTYPE svg PUBLIC "-//W3C//DTD SVG 20010904//EN"
 "http://www.w3.org/TR/2001/REC-SVG-20010904/DTD/svg10.dtd">
<svg version="1.0" xmlns="http://www.w3.org/2000/svg"
 width="1025.000000pt" height="1025.000000pt" viewBox="0 0 1025.000000 1025.000000"
 preserveAspectRatio="xMidYMid meet">
<metadata>
Created by potrace 1.11, written by Peter Selinger 2001-2013
</metadata>
<g transform="translate(0.000000,1025.000000) scale(0.100000,-0.100000)"
fill="#000000" stroke="none">
<path d="M4828 9775 c-2 -2 -44 -6 -93 -10 -50 -3 -101 -8 -115 -10 -14 -2
-50 -7 -80 -10 -97 -10 -362 -56 -470 -81 -58 -14 -115 -27 -128 -30 -70 -15
-345 -99 -457 -139 -490 -177 -934 -415 -1365 -730 -68 -49 -294 -230 -337
-269 -6 -6 -51 -47 -99 -91 -255 -232 -496 -498 -707 -780 -170 -227 -316
-464 -458 -740 -83 -161 -223 -475 -234 -525 -2 -8 -17 -51 -34 -96 -25 -67
-105 -331 -116 -384 -2 -8 -11 -49 -20 -90 -9 -41 -18 -82 -20 -90 -23 -110
-53 -301 -61 -390 -3 -30 -8 -66 -11 -80 -9 -41 -12 -620 -3 -680 5 -30 11
-82 14 -115 2 -33 9 -89 15 -125 6 -36 13 -83 16 -105 4 -22 8 -47 10 -55 2
-8 7 -30 10 -48 30 -179 150 -569 231 -752 77 -173 188 -388 277 -535 107
-178 349 -502 478 -641 333 -358 614 -593 1049 -876 165 -107 422 -244 645
-342 72 -32 154 -69 183 -82 29 -13 55 -24 58 -24 3 0 68 -23 144 -50 196 -72
552 -176 705 -206 60 -12 286 -54 325 -60 25 -4 47 -8 50 -9 3 -1 34 -5 70 -9
36 -5 72 -10 80 -11 8 -2 49 -6 90 -10 41 -4 82 -9 91 -10 59 -12 310 -20 584
-20 282 0 403 4 550 20 22 2 67 7 100 10 61 6 84 9 190 25 33 5 83 12 110 16
28 3 53 8 56 10 3 1 28 6 55 10 27 3 51 8 54 9 3 2 25 6 48 10 24 3 116 24
205 46 89 23 167 42 172 43 104 25 474 147 550 181 17 7 64 26 105 43 307 122
690 329 990 536 323 222 643 504 881 776 41 47 76 87 79 90 12 12 151 191 201
260 53 73 155 228 193 293 35 60 156 279 156 283 0 1 22 49 49 106 26 57 67
153 91 213 23 61 46 119 51 130 11 27 62 193 88 285 28 104 74 316 85 400 2
19 8 58 11 85 4 28 8 61 10 75 27 184 27 743 0 910 -2 14 -9 63 -16 110 -19
136 -18 136 -38 230 -46 225 -133 534 -190 675 -5 11 -28 70 -52 130 -286 730
-815 1466 -1453 2020 -38 33 -74 65 -80 70 -29 27 -244 192 -348 266 -112 80
-334 223 -408 263 -19 10 -60 33 -90 50 -155 90 -448 227 -657 307 -263 101
-648 211 -858 245 -16 3 -77 13 -135 23 -58 10 -112 19 -120 19 -8 0 -35 3
-60 7 -25 3 -70 8 -100 11 -30 3 -73 8 -95 11 -44 6 -691 13 -697 8z"/>
</g>
</svg>
